Genre:Action | Crime | Thriller
Language:English 
http://www.imdb.com/title/tt1899353
Source:DUBBED.1080p.BluRay.x264-GECKOS Thanks
Encoder:Tony

Format : AVI
Format/Info : Audio Video Interleave
File size : 1.13 GiB
Duration : 1h 41mn
Overall bit rate : 1 596 Kbps

Video
ID : 0
Format : MPEG-4 Visual
Format profile : Advanced Simple@L5
Format settings, BVOP : 1
Format settings, QPel : No
Format settings, GMC : No warppoints
Format settings, Matrix : Default (H.263)
Codec ID : XVID
Codec ID/Hint : XviD
Duration : 1h 41mn
Bit rate : 1 203 Kbps
Width : 640 pixels
Height : 360 pixels
Display aspect ratio : 16:9
Frame rate : 23.976 fps
Color space : YUV
Chroma subsampling : 4:2:0
Bit depth : 8 bits
Scan type : Progressive
Compression mode : Lossy
Bits/(Pixel*Frame) : 0.218
Stream size : 870 MiB (75%)
Writing library : XviD 1.2.1 (UTC 2008-12-04)

Audio
ID : 1
Format : AC-3
Format/Info : Audio Coding 3
Mode extension : CM (complete main)
Codec ID : 2000
Duration : 1h 41mn
Bit rate mode : Constant
Bit rate : 384 Kbps
Channel(s) : 6 channels
Channel positions : Front: L C R, Side: L R, LFE
Sampling rate : 48.0 KHz
Bit depth : 16 bits
Compression mode : Lossy
Stream size : 278 MiB (24%)
Alignment : Aligned on interleaves
Interleave, duration : 42 ms (1.00 video frame)
Interleave, preload duration : 512 ms



Plot:
A SWAT team becomes trapped in a tenement run by a ruthless mobster and his army of killers and thugs.
 
http://img835.imageshack.us/img835/9018/vlcsnap2012073118h22m08.png 
http://img337.imageshack.us/img337/1193/vlcsnap2012073118h23m12.png 
http://img542.imageshack.us/img542/9204/vlcsnap2012073118h23m55.png 
http://img687.imageshack.us/img687/1342/vlcsnap2012073118h23m20.png